<svg xmlns="http://www.w3.org/2000/svg" width="640" height="360" viewBox="0 0 640 360" role="img" aria-label="retro puzzle panel">
  <rect width="640" height="360" fill="#008080"/>
  <rect x="44" y="34" width="552" height="292" fill="#c0c0c0" stroke="#fff" stroke-width="4"/>
  <rect x="78" y="64" width="484" height="232" fill="#222b35" stroke="#111" stroke-width="5"/>
  <rect x="118" y="94" width="404" height="68" fill="#0f0f0f" stroke="#dcdcdc" stroke-width="4"/>
  <path d="M142 128h68M238 128h68M334 128h68M430 128h68" stroke="#6ee7b7" stroke-width="8"/>
  <rect x="132" y="196" width="76" height="58" fill="#c0c0c0" stroke="#111" stroke-width="4"/>
  <rect x="234" y="196" width="76" height="58" fill="#c0c0c0" stroke="#111" stroke-width="4"/>
  <rect x="336" y="196" width="76" height="58" fill="#c0c0c0" stroke="#111" stroke-width="4"/>
  <rect x="438" y="196" width="76" height="58" fill="#c0c0c0" stroke="#111" stroke-width="4"/>
  <circle cx="170" cy="225" r="16" fill="#da3f3f"/>
  <path d="M272 208l22 34h-44z" fill="#f0ca4d"/>
  <rect x="356" y="210" width="36" height="30" fill="#3f83da"/>
  <path d="M476 206l20 19-20 20-20-20z" fill="#5bbd67"/>
</svg>
